<svg xmlns="http://www.w3.org/2000/svg" xmlns:xlink="http://www.w3.org/1999/xlink" width="336" zoomAndPan="magnify" viewBox="0 0 252 143.999998" height="192" preserveAspectRatio="xMidYMid meet" version="1.0"><defs><filter x="0%" y="0%" width="100%" height="100%" id="id1"><feColorMatrix values="0 0 0 0 1 0 0 0 0 1 0 0 0 0 1 0 0 0 1 0" color-interpolation-filters="sRGB"/></filter><g/><mask id="id2"><g filter="url(#id1)"><rect x="-25.2" width="302.4" fill="rgb(0%, 0%, 0%)" y="-14.4" height="172.799997" fill-opacity="0.4863"/></g></mask><clipPath id="id3"><path d="M 0.171875 25 L 8 25 L 8 27 L 0.171875 27 Z M 0.171875 25 " clip-rule="nonzero"/></clipPath><clipPath id="id4"><path d="M 44 25 L 51.921875 25 L 51.921875 27 L 44 27 Z M 44 25 " clip-rule="nonzero"/></clipPath><clipPath id="id5"><path d="M 25 0.519531 L 27 0.519531 L 27 8 L 25 8 Z M 25 0.519531 " clip-rule="nonzero"/></clipPath><clipPath id="id6"><path d="M 18 50 L 34 50 L 34 53.769531 L 18 53.769531 Z M 18 50 " clip-rule="nonzero"/></clipPath><clipPath id="id7"><rect x="0" width="53" y="0" height="55"/></clipPath></defs><rect x="-25.2" width="302.4" fill="rgb(100%, 100%, 100%)" y="-14.4" height="172.799997" fill-opacity="1"/><rect x="-25.2" width="302.4" fill="rgb(0.389099%, 2.749634%, 9.01947%)" y="-14.4" height="172.799997" fill-opacity="1"/><rect x="-25.2" width="302.4" fill="rgb(100%, 100%, 100%)" y="-14.4" height="172.799997" fill-opacity="1"/><rect x="-25.2" width="302.4" fill="rgb(0.389099%, 2.749634%, 9.01947%)" y="-14.4" height="172.799997" fill-opacity="1"/><g mask="url(#id2)"><g transform="matrix(1, 0, 0, 1, 100, 31)"><g clip-path="url(#id7)"><g clip-path="url(#id3)"><path fill="rgb(13.328552%, 63.139343%, 88.62915%)" d="M 6.851562 26.804688 L 0.820312 26.804688 C 0.488281 26.804688 0.214844 26.535156 0.214844 26.203125 C 0.214844 25.867188 0.488281 25.597656 0.820312 25.597656 L 6.851562 25.597656 C 7.1875 25.597656 7.457031 25.867188 7.457031 26.203125 C 7.457031 26.535156 7.1875 26.804688 6.851562 26.804688 " fill-opacity="1" fill-rule="nonzero"/></g><g clip-path="url(#id4)"><path fill="rgb(13.328552%, 63.139343%, 88.62915%)" d="M 51.269531 26.953125 L 45.238281 26.953125 C 44.902344 26.953125 44.632812 26.679688 44.632812 26.347656 C 44.632812 26.015625 44.902344 25.742188 45.238281 25.742188 L 51.269531 25.742188 C 51.605469 25.742188 51.875 26.015625 51.875 26.347656 C 51.875 26.679688 51.605469 26.953125 51.269531 26.953125 " fill-opacity="1" fill-rule="nonzero"/></g><path fill="rgb(13.328552%, 63.139343%, 88.62915%)" d="M 42.976562 17.859375 C 42.761719 17.859375 42.550781 17.746094 42.441406 17.542969 C 42.285156 17.25 42.394531 16.882812 42.6875 16.726562 L 47.996094 13.871094 C 48.292969 13.714844 48.65625 13.824219 48.816406 14.117188 C 48.976562 14.410156 48.867188 14.777344 48.570312 14.933594 L 43.261719 17.789062 C 43.171875 17.839844 43.074219 17.859375 42.976562 17.859375 " fill-opacity="1" fill-rule="nonzero"/><path fill="rgb(13.328552%, 63.139343%, 88.62915%)" d="M 35.183594 10.046875 C 35.085938 10.046875 34.988281 10.019531 34.898438 9.972656 C 34.601562 9.816406 34.492188 9.449219 34.648438 9.15625 L 37.5 3.855469 C 37.65625 3.5625 38.023438 3.449219 38.320312 3.609375 C 38.613281 3.765625 38.726562 4.132812 38.566406 4.425781 L 35.71875 9.726562 C 35.609375 9.929688 35.398438 10.046875 35.183594 10.046875 " fill-opacity="1" fill-rule="nonzero"/><path fill="rgb(13.328552%, 63.139343%, 88.62915%)" d="M 8.171875 17.3125 C 8.074219 17.3125 7.976562 17.289062 7.882812 17.238281 L 2.574219 14.386719 C 2.28125 14.226562 2.171875 13.859375 2.328125 13.566406 C 2.488281 13.273438 2.855469 13.164062 3.152344 13.320312 L 8.457031 16.175781 C 8.753906 16.332031 8.863281 16.699219 8.703125 16.992188 C 8.59375 17.195312 8.386719 17.3125 8.171875 17.3125 " fill-opacity="1" fill-rule="nonzero"/><path fill="rgb(13.328552%, 63.139343%, 88.62915%)" d="M 15.964844 9.496094 C 15.75 9.496094 15.539062 9.378906 15.429688 9.175781 L 12.578125 3.875 C 12.421875 3.582031 12.53125 3.214844 12.828125 3.058594 C 13.121094 2.902344 13.488281 3.011719 13.648438 3.304688 L 16.496094 8.605469 C 16.65625 8.898438 16.542969 9.265625 16.25 9.425781 C 16.160156 9.472656 16.0625 9.496094 15.964844 9.496094 " fill-opacity="1" fill-rule="nonzero"/><g clip-path="url(#id5)"><path fill="rgb(13.328552%, 63.139343%, 88.62915%)" d="M 26.175781 7.738281 C 26.175781 7.738281 26.171875 7.738281 26.171875 7.738281 C 25.839844 7.734375 25.566406 7.464844 25.570312 7.132812 L 25.585938 1.117188 C 25.585938 0.785156 25.859375 0.515625 26.191406 0.515625 C 26.191406 0.515625 26.195312 0.515625 26.195312 0.515625 C 26.527344 0.515625 26.796875 0.789062 26.796875 1.121094 L 26.78125 7.132812 C 26.777344 7.46875 26.507812 7.738281 26.175781 7.738281 " fill-opacity="1" fill-rule="nonzero"/></g><path fill="rgb(13.328552%, 63.139343%, 88.62915%)" d="M 30.683594 25.390625 C 30.628906 26.269531 30.351562 26.914062 29.847656 27.3125 C 29.652344 27.15625 29.46875 26.984375 29.304688 26.792969 C 28.503906 25.875 28.238281 24.71875 28.5 23.253906 C 28.75 21.828125 29.125 21.539062 29.214844 21.539062 C 29.214844 21.539062 29.214844 21.539062 29.21875 21.539062 C 29.742188 21.601562 30.792969 23.503906 30.683594 25.390625 Z M 23.152344 26.699219 C 23.03125 26.855469 22.898438 27 22.753906 27.136719 C 22.054688 26.503906 21.835938 25.554688 21.777344 24.886719 C 21.617188 23.070312 22.367188 21.589844 22.734375 21.523438 C 22.738281 21.523438 22.738281 21.523438 22.738281 21.523438 C 22.8125 21.523438 23.234375 21.816406 23.628906 23.277344 C 24.007812 24.675781 23.851562 25.796875 23.152344 26.699219 Z M 36.476562 29.046875 C 36.449219 29.046875 34.738281 29.097656 32.902344 28.667969 C 32.828125 28.652344 32.601562 28.601562 32.515625 28.574219 C 31.964844 28.425781 31.414062 28.230469 30.902344 27.976562 C 31.484375 27.371094 31.828125 26.515625 31.890625 25.460938 C 32.015625 23.304688 30.871094 20.515625 29.359375 20.339844 C 28.652344 20.257812 27.726562 20.660156 27.304688 23.042969 C 26.984375 24.867188 27.347656 26.394531 28.390625 27.585938 C 28.449219 27.65625 28.511719 27.722656 28.574219 27.785156 C 28.441406 27.800781 28.300781 27.808594 28.15625 27.808594 L 24.71875 27.796875 C 24.410156 27.796875 24.132812 27.765625 23.886719 27.707031 C 23.964844 27.621094 24.039062 27.53125 24.109375 27.441406 C 25.042969 26.238281 25.277344 24.726562 24.796875 22.960938 C 24.152344 20.570312 23.207031 20.214844 22.523438 20.335938 C 21.152344 20.578125 20.394531 22.984375 20.574219 24.992188 C 20.679688 26.199219 21.089844 27.171875 21.753906 27.855469 C 19.445312 29.140625 16.042969 29.128906 15.992188 29.128906 C 15.664062 29.121094 15.382812 29.390625 15.378906 29.726562 C 15.375 30.058594 15.644531 30.332031 15.976562 30.335938 C 15.988281 30.335938 16.003906 30.335938 16.027344 30.335938 C 16.320312 30.335938 17.710938 30.316406 19.3125 29.976562 L 23.378906 44.941406 C 23.453125 45.210938 23.695312 45.386719 23.964844 45.386719 C 24.015625 45.386719 24.070312 45.382812 24.121094 45.367188 C 24.445312 45.28125 24.636719 44.949219 24.546875 44.625 L 20.484375 29.679688 C 21.296875 29.429688 22.109375 29.085938 22.820312 28.613281 C 23.371094 28.871094 24.007812 29.003906 24.714844 29.003906 L 28.15625 29.015625 C 28.753906 29.015625 29.296875 28.917969 29.769531 28.730469 C 30.410156 29.121094 31.113281 29.410156 31.820312 29.628906 L 27.769531 44.539062 C 27.683594 44.859375 27.875 45.191406 28.195312 45.277344 C 28.25 45.292969 28.300781 45.300781 28.355469 45.300781 C 28.621094 45.300781 28.867188 45.125 28.941406 44.855469 L 32.996094 29.925781 C 34.820312 30.304688 36.398438 30.257812 36.523438 30.253906 C 36.855469 30.238281 37.117188 29.960938 37.105469 29.625 C 37.09375 29.292969 36.804688 29.03125 36.476562 29.046875 " fill-opacity="1" fill-rule="nonzero"/><g clip-path="url(#id6)"><path fill="rgb(13.328552%, 63.139343%, 88.62915%)" d="M 32.144531 50.851562 C 31.945312 51.882812 31.425781 52.5625 30.980469 52.5625 L 21.125 52.5625 C 20.679688 52.5625 20.160156 51.882812 19.960938 50.851562 L 18.734375 50.851562 C 18.988281 52.550781 19.953125 53.769531 21.125 53.769531 L 30.980469 53.769531 C 32.152344 53.769531 33.117188 52.550781 33.367188 50.851562 L 32.144531 50.851562 " fill-opacity="1" fill-rule="nonzero"/></g><path fill="rgb(10.978699%, 23.919678%, 52.549744%)" d="M 32.777344 50.171875 L 19.441406 50.171875 C 19.007812 50.171875 18.640625 49.902344 18.640625 49.582031 L 18.640625 48.121094 L 33.582031 48.121094 L 33.582031 49.582031 C 33.582031 49.902344 33.214844 50.171875 32.777344 50.171875 Z M 18.640625 45.554688 L 33.582031 45.554688 L 33.582031 46.914062 L 18.640625 46.914062 Z M 10.578125 26.101562 C 10.578125 17.5625 17.542969 10.613281 26.109375 10.613281 C 34.671875 10.613281 41.640625 17.5625 41.640625 26.101562 C 41.640625 31.625 38.652344 36.773438 33.84375 39.53125 C 33.65625 39.640625 33.539062 39.839844 33.539062 40.054688 L 33.539062 44.347656 L 18.679688 44.347656 L 18.679688 40.054688 C 18.679688 39.839844 18.5625 39.640625 18.375 39.53125 C 13.5625 36.773438 10.578125 31.625 10.578125 26.101562 Z M 42.851562 26.101562 C 42.851562 16.894531 35.339844 9.40625 26.109375 9.40625 C 16.878906 9.40625 9.363281 16.894531 9.363281 26.101562 C 9.363281 31.941406 12.460938 37.386719 17.464844 40.402344 L 17.464844 44.898438 C 17.441406 44.960938 17.429688 45.03125 17.429688 45.101562 L 17.429688 49.582031 C 17.429688 50.574219 18.332031 51.378906 19.441406 51.378906 L 32.777344 51.378906 C 33.890625 51.378906 34.792969 50.574219 34.792969 49.582031 L 34.792969 44.980469 C 34.792969 44.902344 34.777344 44.828125 34.75 44.761719 L 34.75 40.402344 C 39.757812 37.386719 42.851562 31.941406 42.851562 26.101562 " fill-opacity="1" fill-rule="nonzero"/></g></g></g><g fill="rgb(13.328552%, 63.139343%, 88.62915%)" fill-opacity="1"><g transform="translate(99.121989, 108.017528)"><g><path d="M 2.8125 -1.53125 C 2.8125 -1.03125 2.675781 -0.648438 2.40625 -0.390625 C 2.144531 -0.128906 1.757812 0 1.25 0 L 0.40625 0 L 0.40625 -3.015625 L 1.34375 -3.015625 C 1.8125 -3.015625 2.171875 -2.882812 2.421875 -2.625 C 2.679688 -2.363281 2.8125 -2 2.8125 -1.53125 Z M 2.453125 -1.515625 C 2.453125 -1.910156 2.351562 -2.207031 2.15625 -2.40625 C 1.957031 -2.601562 1.660156 -2.703125 1.265625 -2.703125 L 0.765625 -2.703125 L 0.765625 -0.296875 L 1.1875 -0.296875 C 1.601562 -0.296875 1.914062 -0.398438 2.125 -0.609375 C 2.34375 -0.816406 2.453125 -1.117188 2.453125 -1.515625 Z M 2.453125 -1.515625 "/></g></g></g><g fill="rgb(13.328552%, 63.139343%, 88.62915%)" fill-opacity="1"><g transform="translate(102.959451, 108.017528)"><g><path d="M 2.09375 0 L 0.40625 0 L 0.40625 -3.015625 L 2.09375 -3.015625 L 2.09375 -2.703125 L 0.765625 -2.703125 L 0.765625 -1.734375 L 2.015625 -1.734375 L 2.015625 -1.421875 L 0.765625 -1.421875 L 0.765625 -0.3125 L 2.09375 -0.3125 Z M 2.09375 0 "/></g></g></g><g fill="rgb(13.328552%, 63.139343%, 88.62915%)" fill-opacity="1"><g transform="translate(106.067308, 108.017528)"><g><path d="M 2.109375 -0.796875 C 2.109375 -0.535156 2.007812 -0.328125 1.8125 -0.171875 C 1.625 -0.0234375 1.367188 0.046875 1.046875 0.046875 C 0.679688 0.046875 0.40625 0 0.21875 -0.09375 L 0.21875 -0.4375 C 0.34375 -0.382812 0.476562 -0.34375 0.625 -0.3125 C 0.769531 -0.28125 0.914062 -0.265625 1.0625 -0.265625 C 1.289062 -0.265625 1.460938 -0.304688 1.578125 -0.390625 C 1.703125 -0.484375 1.765625 -0.609375 1.765625 -0.765625 C 1.765625 -0.867188 1.742188 -0.953125 1.703125 -1.015625 C 1.660156 -1.085938 1.585938 -1.148438 1.484375 -1.203125 C 1.390625 -1.265625 1.238281 -1.332031 1.03125 -1.40625 C 0.757812 -1.5 0.5625 -1.613281 0.4375 -1.75 C 0.3125 -1.894531 0.25 -2.078125 0.25 -2.296875 C 0.25 -2.523438 0.335938 -2.707031 0.515625 -2.84375 C 0.691406 -2.988281 0.925781 -3.0625 1.21875 -3.0625 C 1.507812 -3.0625 1.78125 -3.003906 2.03125 -2.890625 L 1.921875 -2.578125 C 1.679688 -2.679688 1.441406 -2.734375 1.203125 -2.734375 C 1.015625 -2.734375 0.867188 -2.691406 0.765625 -2.609375 C 0.660156 -2.535156 0.609375 -2.429688 0.609375 -2.296875 C 0.609375 -2.191406 0.628906 -2.101562 0.671875 -2.03125 C 0.710938 -1.96875 0.773438 -1.90625 0.859375 -1.84375 C 0.953125 -1.789062 1.09375 -1.734375 1.28125 -1.671875 C 1.59375 -1.554688 1.804688 -1.429688 1.921875 -1.296875 C 2.046875 -1.171875 2.109375 -1.003906 2.109375 -0.796875 Z M 2.109375 -0.796875 "/></g></g></g><g fill="rgb(13.328552%, 63.139343%, 88.62915%)" fill-opacity="1"><g transform="translate(109.144249, 108.017528)"><g><path d="M 2.09375 0 L 0.40625 0 L 0.40625 -3.015625 L 2.09375 -3.015625 L 2.09375 -2.703125 L 0.765625 -2.703125 L 0.765625 -1.734375 L 2.015625 -1.734375 L 2.015625 -1.421875 L 0.765625 -1.421875 L 0.765625 -0.3125 L 2.09375 -0.3125 Z M 2.09375 0 "/></g></g></g><g fill="rgb(13.328552%, 63.139343%, 88.62915%)" fill-opacity="1"><g transform="translate(112.252105, 108.017528)"><g><path d="M 2.765625 0 L 2.359375 0 L 0.71875 -2.53125 L 0.703125 -2.53125 C 0.722656 -2.226562 0.734375 -1.957031 0.734375 -1.71875 L 0.734375 0 L 0.40625 0 L 0.40625 -3.015625 L 0.8125 -3.015625 L 2.453125 -0.5 L 2.46875 -0.5 C 2.46875 -0.53125 2.460938 -0.644531 2.453125 -0.84375 C 2.441406 -1.050781 2.4375 -1.195312 2.4375 -1.28125 L 2.4375 -3.015625 L 2.765625 -3.015625 Z M 2.765625 0 "/></g></g></g><g fill="rgb(13.328552%, 63.139343%, 88.62915%)" fill-opacity="1"><g transform="translate(116.194681, 108.017528)"><g><path d="M 2.140625 -3.015625 L 2.515625 -3.015625 L 1.421875 0 L 1.078125 0 L 0 -3.015625 L 0.375 -3.015625 L 1.0625 -1.0625 C 1.144531 -0.84375 1.207031 -0.625 1.25 -0.40625 C 1.300781 -0.632812 1.367188 -0.859375 1.453125 -1.078125 Z M 2.140625 -3.015625 "/></g></g></g><g fill="rgb(13.328552%, 63.139343%, 88.62915%)" fill-opacity="1"><g transform="translate(119.46742, 108.017528)"><g><path d="M 3.03125 -1.515625 C 3.03125 -1.023438 2.90625 -0.640625 2.65625 -0.359375 C 2.414062 -0.0859375 2.078125 0.046875 1.640625 0.046875 C 1.203125 0.046875 0.859375 -0.0859375 0.609375 -0.359375 C 0.367188 -0.628906 0.25 -1.015625 0.25 -1.515625 C 0.25 -2.003906 0.367188 -2.382812 0.609375 -2.65625 C 0.859375 -2.925781 1.207031 -3.0625 1.65625 -3.0625 C 2.082031 -3.0625 2.414062 -2.921875 2.65625 -2.640625 C 2.90625 -2.367188 3.03125 -1.992188 3.03125 -1.515625 Z M 0.625 -1.515625 C 0.625 -1.097656 0.710938 -0.785156 0.890625 -0.578125 C 1.066406 -0.367188 1.316406 -0.265625 1.640625 -0.265625 C 1.972656 -0.265625 2.222656 -0.367188 2.390625 -0.578125 C 2.566406 -0.785156 2.65625 -1.097656 2.65625 -1.515625 C 2.65625 -1.921875 2.570312 -2.226562 2.40625 -2.4375 C 2.238281 -2.644531 1.988281 -2.75 1.65625 -2.75 C 1.320312 -2.75 1.066406 -2.640625 0.890625 -2.421875 C 0.710938 -2.210938 0.625 -1.910156 0.625 -1.515625 Z M 0.625 -1.515625 "/></g></g></g><g fill="rgb(13.328552%, 63.139343%, 88.62915%)" fill-opacity="1"><g transform="translate(123.515108, 108.017528)"><g><path d="M 0.40625 0 L 0.40625 -3.015625 L 0.765625 -3.015625 L 0.765625 -0.3125 L 2.09375 -0.3125 L 2.09375 0 Z M 0.40625 0 "/></g></g></g><g fill="rgb(13.328552%, 63.139343%, 88.62915%)" fill-opacity="1"><g transform="translate(126.466326, 108.017528)"><g><path d="M 2.140625 -3.015625 L 2.515625 -3.015625 L 1.421875 0 L 1.078125 0 L 0 -3.015625 L 0.375 -3.015625 L 1.0625 -1.0625 C 1.144531 -0.84375 1.207031 -0.625 1.25 -0.40625 C 1.300781 -0.632812 1.367188 -0.859375 1.453125 -1.078125 Z M 2.140625 -3.015625 "/></g></g></g><g fill="rgb(13.328552%, 63.139343%, 88.62915%)" fill-opacity="1"><g transform="translate(129.739065, 108.017528)"><g><path d="M 2.09375 0 L 0.40625 0 L 0.40625 -3.015625 L 2.09375 -3.015625 L 2.09375 -2.703125 L 0.765625 -2.703125 L 0.765625 -1.734375 L 2.015625 -1.734375 L 2.015625 -1.421875 L 0.765625 -1.421875 L 0.765625 -0.3125 L 2.09375 -0.3125 Z M 2.09375 0 "/></g></g></g><g fill="rgb(13.328552%, 63.139343%, 88.62915%)" fill-opacity="1"><g transform="translate(132.846922, 108.017528)"><g><path d="M 2.8125 -1.53125 C 2.8125 -1.03125 2.675781 -0.648438 2.40625 -0.390625 C 2.144531 -0.128906 1.757812 0 1.25 0 L 0.40625 0 L 0.40625 -3.015625 L 1.34375 -3.015625 C 1.8125 -3.015625 2.171875 -2.882812 2.421875 -2.625 C 2.679688 -2.363281 2.8125 -2 2.8125 -1.53125 Z M 2.453125 -1.515625 C 2.453125 -1.910156 2.351562 -2.207031 2.15625 -2.40625 C 1.957031 -2.601562 1.660156 -2.703125 1.265625 -2.703125 L 0.765625 -2.703125 L 0.765625 -0.296875 L 1.1875 -0.296875 C 1.601562 -0.296875 1.914062 -0.398438 2.125 -0.609375 C 2.34375 -0.816406 2.453125 -1.117188 2.453125 -1.515625 Z M 2.453125 -1.515625 "/></g></g></g><g fill="rgb(13.328552%, 63.139343%, 88.62915%)" fill-opacity="1"><g transform="translate(136.684384, 108.017528)"><g><path d="M 3.03125 -1.515625 C 3.03125 -1.023438 2.90625 -0.640625 2.65625 -0.359375 C 2.414062 -0.0859375 2.078125 0.046875 1.640625 0.046875 C 1.203125 0.046875 0.859375 -0.0859375 0.609375 -0.359375 C 0.367188 -0.628906 0.25 -1.015625 0.25 -1.515625 C 0.25 -2.003906 0.367188 -2.382812 0.609375 -2.65625 C 0.859375 -2.925781 1.207031 -3.0625 1.65625 -3.0625 C 2.082031 -3.0625 2.414062 -2.921875 2.65625 -2.640625 C 2.90625 -2.367188 3.03125 -1.992188 3.03125 -1.515625 Z M 0.625 -1.515625 C 0.625 -1.097656 0.710938 -0.785156 0.890625 -0.578125 C 1.066406 -0.367188 1.316406 -0.265625 1.640625 -0.265625 C 1.972656 -0.265625 2.222656 -0.367188 2.390625 -0.578125 C 2.566406 -0.785156 2.65625 -1.097656 2.65625 -1.515625 C 2.65625 -1.921875 2.570312 -2.226562 2.40625 -2.4375 C 2.238281 -2.644531 1.988281 -2.75 1.65625 -2.75 C 1.320312 -2.75 1.066406 -2.640625 0.890625 -2.421875 C 0.710938 -2.210938 0.625 -1.910156 0.625 -1.515625 Z M 0.625 -1.515625 "/></g></g></g><g fill="rgb(13.328552%, 63.139343%, 88.62915%)" fill-opacity="1"><g transform="translate(140.732073, 108.017528)"><g><path d="M 0.765625 -1.25 L 0.765625 0 L 0.40625 0 L 0.40625 -3.015625 L 1.234375 -3.015625 C 1.609375 -3.015625 1.882812 -2.941406 2.0625 -2.796875 C 2.238281 -2.660156 2.328125 -2.445312 2.328125 -2.15625 C 2.328125 -1.757812 2.125 -1.492188 1.71875 -1.359375 L 2.53125 0 L 2.125 0 L 1.390625 -1.25 Z M 0.765625 -1.546875 L 1.25 -1.546875 C 1.488281 -1.546875 1.664062 -1.59375 1.78125 -1.6875 C 1.90625 -1.789062 1.96875 -1.941406 1.96875 -2.140625 C 1.96875 -2.335938 1.90625 -2.476562 1.78125 -2.5625 C 1.664062 -2.65625 1.476562 -2.703125 1.21875 -2.703125 L 0.765625 -2.703125 Z M 0.765625 -1.546875 "/></g></g></g><g fill="rgb(13.328552%, 63.139343%, 88.62915%)" fill-opacity="1"><g transform="translate(144.101681, 108.017528)"><g/></g></g><g fill="rgb(13.328552%, 63.139343%, 88.62915%)" fill-opacity="1"><g transform="translate(145.958489, 108.017528)"><g><path d="M 2.09375 0 L 0.40625 0 L 0.40625 -3.015625 L 2.09375 -3.015625 L 2.09375 -2.703125 L 0.765625 -2.703125 L 0.765625 -1.734375 L 2.015625 -1.734375 L 2.015625 -1.421875 L 0.765625 -1.421875 L 0.765625 -0.3125 L 2.09375 -0.3125 Z M 2.09375 0 "/></g></g></g><g fill="rgb(13.328552%, 63.139343%, 88.62915%)" fill-opacity="1"><g transform="translate(149.066345, 108.017528)"><g><path d="M 1.75 0 L 0.71875 -2.671875 L 0.703125 -2.671875 C 0.722656 -2.460938 0.734375 -2.210938 0.734375 -1.921875 L 0.734375 0 L 0.40625 0 L 0.40625 -3.015625 L 0.9375 -3.015625 L 1.890625 -0.53125 L 1.90625 -0.53125 L 2.875 -3.015625 L 3.390625 -3.015625 L 3.390625 0 L 3.046875 0 L 3.046875 -1.9375 C 3.046875 -2.164062 3.054688 -2.410156 3.078125 -2.671875 L 3.0625 -2.671875 L 2.03125 0 Z M 1.75 0 "/></g></g></g><g fill="rgb(13.328552%, 63.139343%, 88.62915%)" fill-opacity="1"><g transform="translate(100.719489, 113.777528)"><g><path d="M 2.8125 -1.53125 C 2.8125 -1.03125 2.675781 -0.648438 2.40625 -0.390625 C 2.144531 -0.128906 1.757812 0 1.25 0 L 0.40625 0 L 0.40625 -3.015625 L 1.34375 -3.015625 C 1.8125 -3.015625 2.171875 -2.882812 2.421875 -2.625 C 2.679688 -2.363281 2.8125 -2 2.8125 -1.53125 Z M 2.453125 -1.515625 C 2.453125 -1.910156 2.351562 -2.207031 2.15625 -2.40625 C 1.957031 -2.601562 1.660156 -2.703125 1.265625 -2.703125 L 0.765625 -2.703125 L 0.765625 -0.296875 L 1.1875 -0.296875 C 1.601562 -0.296875 1.914062 -0.398438 2.125 -0.609375 C 2.34375 -0.816406 2.453125 -1.117188 2.453125 -1.515625 Z M 2.453125 -1.515625 "/></g></g></g><g fill="rgb(13.328552%, 63.139343%, 88.62915%)" fill-opacity="1"><g transform="translate(104.556951, 113.777528)"><g><path d="M 2.09375 0 L 0.40625 0 L 0.40625 -3.015625 L 2.09375 -3.015625 L 2.09375 -2.703125 L 0.765625 -2.703125 L 0.765625 -1.734375 L 2.015625 -1.734375 L 2.015625 -1.421875 L 0.765625 -1.421875 L 0.765625 -0.3125 L 2.09375 -0.3125 Z M 2.09375 0 "/></g></g></g><g fill="rgb(13.328552%, 63.139343%, 88.62915%)" fill-opacity="1"><g transform="translate(107.664808, 113.777528)"><g><path d="M 2.109375 -0.796875 C 2.109375 -0.535156 2.007812 -0.328125 1.8125 -0.171875 C 1.625 -0.0234375 1.367188 0.046875 1.046875 0.046875 C 0.679688 0.046875 0.40625 0 0.21875 -0.09375 L 0.21875 -0.4375 C 0.34375 -0.382812 0.476562 -0.34375 0.625 -0.3125 C 0.769531 -0.28125 0.914062 -0.265625 1.0625 -0.265625 C 1.289062 -0.265625 1.460938 -0.304688 1.578125 -0.390625 C 1.703125 -0.484375 1.765625 -0.609375 1.765625 -0.765625 C 1.765625 -0.867188 1.742188 -0.953125 1.703125 -1.015625 C 1.660156 -1.085938 1.585938 -1.148438 1.484375 -1.203125 C 1.390625 -1.265625 1.238281 -1.332031 1.03125 -1.40625 C 0.757812 -1.5 0.5625 -1.613281 0.4375 -1.75 C 0.3125 -1.894531 0.25 -2.078125 0.25 -2.296875 C 0.25 -2.523438 0.335938 -2.707031 0.515625 -2.84375 C 0.691406 -2.988281 0.925781 -3.0625 1.21875 -3.0625 C 1.507812 -3.0625 1.78125 -3.003906 2.03125 -2.890625 L 1.921875 -2.578125 C 1.679688 -2.679688 1.441406 -2.734375 1.203125 -2.734375 C 1.015625 -2.734375 0.867188 -2.691406 0.765625 -2.609375 C 0.660156 -2.535156 0.609375 -2.429688 0.609375 -2.296875 C 0.609375 -2.191406 0.628906 -2.101562 0.671875 -2.03125 C 0.710938 -1.96875 0.773438 -1.90625 0.859375 -1.84375 C 0.953125 -1.789062 1.09375 -1.734375 1.28125 -1.671875 C 1.59375 -1.554688 1.804688 -1.429688 1.921875 -1.296875 C 2.046875 -1.171875 2.109375 -1.003906 2.109375 -0.796875 Z M 2.109375 -0.796875 "/></g></g></g><g fill="rgb(13.328552%, 63.139343%, 88.62915%)" fill-opacity="1"><g transform="translate(110.741749, 113.777528)"><g><path d="M 2.09375 0 L 0.40625 0 L 0.40625 -3.015625 L 2.09375 -3.015625 L 2.09375 -2.703125 L 0.765625 -2.703125 L 0.765625 -1.734375 L 2.015625 -1.734375 L 2.015625 -1.421875 L 0.765625 -1.421875 L 0.765625 -0.3125 L 2.09375 -0.3125 Z M 2.09375 0 "/></g></g></g><g fill="rgb(13.328552%, 63.139343%, 88.62915%)" fill-opacity="1"><g transform="translate(113.849605, 113.777528)"><g><path d="M 2.765625 0 L 2.359375 0 L 0.71875 -2.53125 L 0.703125 -2.53125 C 0.722656 -2.226562 0.734375 -1.957031 0.734375 -1.71875 L 0.734375 0 L 0.40625 0 L 0.40625 -3.015625 L 0.8125 -3.015625 L 2.453125 -0.5 L 2.46875 -0.5 C 2.46875 -0.53125 2.460938 -0.644531 2.453125 -0.84375 C 2.441406 -1.050781 2.4375 -1.195312 2.4375 -1.28125 L 2.4375 -3.015625 L 2.765625 -3.015625 Z M 2.765625 0 "/></g></g></g><g fill="rgb(13.328552%, 63.139343%, 88.62915%)" fill-opacity="1"><g transform="translate(117.792181, 113.777528)"><g><path d="M 2.140625 -3.015625 L 2.515625 -3.015625 L 1.421875 0 L 1.078125 0 L 0 -3.015625 L 0.375 -3.015625 L 1.0625 -1.0625 C 1.144531 -0.84375 1.207031 -0.625 1.25 -0.40625 C 1.300781 -0.632812 1.367188 -0.859375 1.453125 -1.078125 Z M 2.140625 -3.015625 "/></g></g></g><g fill="rgb(13.328552%, 63.139343%, 88.62915%)" fill-opacity="1"><g transform="translate(121.06492, 113.777528)"><g><path d="M 3.03125 -1.515625 C 3.03125 -1.023438 2.90625 -0.640625 2.65625 -0.359375 C 2.414062 -0.0859375 2.078125 0.046875 1.640625 0.046875 C 1.203125 0.046875 0.859375 -0.0859375 0.609375 -0.359375 C 0.367188 -0.628906 0.25 -1.015625 0.25 -1.515625 C 0.25 -2.003906 0.367188 -2.382812 0.609375 -2.65625 C 0.859375 -2.925781 1.207031 -3.0625 1.65625 -3.0625 C 2.082031 -3.0625 2.414062 -2.921875 2.65625 -2.640625 C 2.90625 -2.367188 3.03125 -1.992188 3.03125 -1.515625 Z M 0.625 -1.515625 C 0.625 -1.097656 0.710938 -0.785156 0.890625 -0.578125 C 1.066406 -0.367188 1.316406 -0.265625 1.640625 -0.265625 C 1.972656 -0.265625 2.222656 -0.367188 2.390625 -0.578125 C 2.566406 -0.785156 2.65625 -1.097656 2.65625 -1.515625 C 2.65625 -1.921875 2.570312 -2.226562 2.40625 -2.4375 C 2.238281 -2.644531 1.988281 -2.75 1.65625 -2.75 C 1.320312 -2.75 1.066406 -2.640625 0.890625 -2.421875 C 0.710938 -2.210938 0.625 -1.910156 0.625 -1.515625 Z M 0.625 -1.515625 "/></g></g></g><g fill="rgb(13.328552%, 63.139343%, 88.62915%)" fill-opacity="1"><g transform="translate(125.112608, 113.777528)"><g><path d="M 0.40625 0 L 0.40625 -3.015625 L 0.765625 -3.015625 L 0.765625 -0.3125 L 2.09375 -0.3125 L 2.09375 0 Z M 0.40625 0 "/></g></g></g><g fill="rgb(13.328552%, 63.139343%, 88.62915%)" fill-opacity="1"><g transform="translate(128.063826, 113.777528)"><g><path d="M 2.140625 -3.015625 L 2.515625 -3.015625 L 1.421875 0 L 1.078125 0 L 0 -3.015625 L 0.375 -3.015625 L 1.0625 -1.0625 C 1.144531 -0.84375 1.207031 -0.625 1.25 -0.40625 C 1.300781 -0.632812 1.367188 -0.859375 1.453125 -1.078125 Z M 2.140625 -3.015625 "/></g></g></g><g fill="rgb(13.328552%, 63.139343%, 88.62915%)" fill-opacity="1"><g transform="translate(131.336565, 113.777528)"><g><path d="M 0.40625 0 L 0.40625 -3.015625 L 0.765625 -3.015625 L 0.765625 0 Z M 0.40625 0 "/></g></g></g><g fill="rgb(13.328552%, 63.139343%, 88.62915%)" fill-opacity="1"><g transform="translate(133.273754, 113.777528)"><g><path d="M 1.75 0 L 0.71875 -2.671875 L 0.703125 -2.671875 C 0.722656 -2.460938 0.734375 -2.210938 0.734375 -1.921875 L 0.734375 0 L 0.40625 0 L 0.40625 -3.015625 L 0.9375 -3.015625 L 1.890625 -0.53125 L 1.90625 -0.53125 L 2.875 -3.015625 L 3.390625 -3.015625 L 3.390625 0 L 3.046875 0 L 3.046875 -1.9375 C 3.046875 -2.164062 3.054688 -2.410156 3.078125 -2.671875 L 3.0625 -2.671875 L 2.03125 0 Z M 1.75 0 "/></g></g></g><g fill="rgb(13.328552%, 63.139343%, 88.62915%)" fill-opacity="1"><g transform="translate(137.844945, 113.777528)"><g><path d="M 2.09375 0 L 0.40625 0 L 0.40625 -3.015625 L 2.09375 -3.015625 L 2.09375 -2.703125 L 0.765625 -2.703125 L 0.765625 -1.734375 L 2.015625 -1.734375 L 2.015625 -1.421875 L 0.765625 -1.421875 L 0.765625 -0.3125 L 2.09375 -0.3125 Z M 2.09375 0 "/></g></g></g><g fill="rgb(13.328552%, 63.139343%, 88.62915%)" fill-opacity="1"><g transform="translate(140.952801, 113.777528)"><g><path d="M 2.765625 0 L 2.359375 0 L 0.71875 -2.53125 L 0.703125 -2.53125 C 0.722656 -2.226562 0.734375 -1.957031 0.734375 -1.71875 L 0.734375 0 L 0.40625 0 L 0.40625 -3.015625 L 0.8125 -3.015625 L 2.453125 -0.5 L 2.46875 -0.5 C 2.46875 -0.53125 2.460938 -0.644531 2.453125 -0.84375 C 2.441406 -1.050781 2.4375 -1.195312 2.4375 -1.28125 L 2.4375 -3.015625 L 2.765625 -3.015625 Z M 2.765625 0 "/></g></g></g><g fill="rgb(13.328552%, 63.139343%, 88.62915%)" fill-opacity="1"><g transform="translate(144.895377, 113.777528)"><g><path d="M 1.34375 0 L 0.984375 0 L 0.984375 -2.703125 L 0.03125 -2.703125 L 0.03125 -3.015625 L 2.296875 -3.015625 L 2.296875 -2.703125 L 1.34375 -2.703125 Z M 1.34375 0 "/></g></g></g><g fill="rgb(13.328552%, 63.139343%, 88.62915%)" fill-opacity="1"><g transform="translate(147.990867, 113.777528)"><g><path d="M 3.03125 -1.515625 C 3.03125 -1.023438 2.90625 -0.640625 2.65625 -0.359375 C 2.414062 -0.0859375 2.078125 0.046875 1.640625 0.046875 C 1.203125 0.046875 0.859375 -0.0859375 0.609375 -0.359375 C 0.367188 -0.628906 0.25 -1.015625 0.25 -1.515625 C 0.25 -2.003906 0.367188 -2.382812 0.609375 -2.65625 C 0.859375 -2.925781 1.207031 -3.0625 1.65625 -3.0625 C 2.082031 -3.0625 2.414062 -2.921875 2.65625 -2.640625 C 2.90625 -2.367188 3.03125 -1.992188 3.03125 -1.515625 Z M 0.625 -1.515625 C 0.625 -1.097656 0.710938 -0.785156 0.890625 -0.578125 C 1.066406 -0.367188 1.316406 -0.265625 1.640625 -0.265625 C 1.972656 -0.265625 2.222656 -0.367188 2.390625 -0.578125 C 2.566406 -0.785156 2.65625 -1.097656 2.65625 -1.515625 C 2.65625 -1.921875 2.570312 -2.226562 2.40625 -2.4375 C 2.238281 -2.644531 1.988281 -2.75 1.65625 -2.75 C 1.320312 -2.75 1.066406 -2.640625 0.890625 -2.421875 C 0.710938 -2.210938 0.625 -1.910156 0.625 -1.515625 Z M 0.625 -1.515625 "/></g></g></g><g fill="rgb(13.328552%, 63.139343%, 88.62915%)" fill-opacity="1"><g transform="translate(87.01404, 99.225841)"><g><path d="M 4.328125 0 L 2.703125 -5.734375 L 2.65625 -5.734375 C 2.726562 -4.753906 2.765625 -3.992188 2.765625 -3.453125 L 2.765625 0 L 0.859375 0 L 0.859375 -7.953125 L 3.71875 -7.953125 L 5.375 -2.3125 L 5.421875 -2.3125 L 7.046875 -7.953125 L 9.921875 -7.953125 L 9.921875 0 L 7.9375 0 L 7.9375 -3.484375 C 7.9375 -3.671875 7.9375 -3.875 7.9375 -4.09375 C 7.945312 -4.3125 7.976562 -4.851562 8.03125 -5.71875 L 7.96875 -5.71875 L 6.375 0 Z M 4.328125 0 "/></g></g></g><g fill="rgb(13.328552%, 63.139343%, 88.62915%)" fill-opacity="1"><g transform="translate(97.777389, 99.225841)"><g><path d="M 5.734375 0 L 5.34375 -1.484375 L 2.765625 -1.484375 L 2.359375 0 L 0 0 L 2.59375 -7.984375 L 5.46875 -7.984375 L 8.09375 0 Z M 4.90625 -3.25 L 4.5625 -4.5625 C 4.476562 -4.851562 4.378906 -5.226562 4.265625 -5.6875 C 4.148438 -6.144531 4.078125 -6.472656 4.046875 -6.671875 C 4.015625 -6.484375 3.945312 -6.175781 3.84375 -5.75 C 3.75 -5.332031 3.535156 -4.5 3.203125 -3.25 Z M 2.4375 -8.75 L 2.4375 -8.90625 C 3 -9.507812 3.351562 -9.894531 3.5 -10.0625 C 3.644531 -10.238281 3.769531 -10.394531 3.875 -10.53125 L 6.203125 -10.53125 L 6.203125 -10.421875 C 5.910156 -10.191406 5.507812 -9.894531 5 -9.53125 C 4.488281 -9.175781 4.101562 -8.914062 3.84375 -8.75 Z M 2.4375 -8.75 "/></g></g></g><g fill="rgb(13.328552%, 63.139343%, 88.62915%)" fill-opacity="1"><g transform="translate(105.860773, 99.225841)"><g><path d="M 3.015625 -2.890625 L 3.015625 0 L 0.859375 0 L 0.859375 -7.953125 L 3.46875 -7.953125 C 5.625 -7.953125 6.703125 -7.171875 6.703125 -5.609375 C 6.703125 -4.679688 6.253906 -3.96875 5.359375 -3.46875 L 7.671875 0 L 5.234375 0 L 3.546875 -2.890625 Z M 3.015625 -4.515625 L 3.40625 -4.515625 C 4.15625 -4.515625 4.53125 -4.84375 4.53125 -5.5 C 4.53125 -6.050781 4.164062 -6.328125 3.4375 -6.328125 L 3.015625 -6.328125 Z M 3.015625 -4.515625 "/></g></g></g><g fill="rgb(13.328552%, 63.139343%, 88.62915%)" fill-opacity="1"><g transform="translate(113.395118, 99.225841)"><g><path d="M 4.40625 -6.296875 C 3.894531 -6.296875 3.492188 -6.085938 3.203125 -5.671875 C 2.921875 -5.253906 2.78125 -4.675781 2.78125 -3.9375 C 2.78125 -2.40625 3.359375 -1.640625 4.515625 -1.640625 C 4.867188 -1.640625 5.207031 -1.6875 5.53125 -1.78125 C 5.863281 -1.882812 6.195312 -2.007812 6.53125 -2.15625 L 6.53125 -0.328125 C 5.875 -0.0351562 5.125 0.109375 4.28125 0.109375 C 3.082031 0.109375 2.160156 -0.238281 1.515625 -0.9375 C 0.878906 -1.632812 0.5625 -2.640625 0.5625 -3.953125 C 0.5625 -4.773438 0.71875 -5.5 1.03125 -6.125 C 1.34375 -6.75 1.785156 -7.226562 2.359375 -7.5625 C 2.941406 -7.894531 3.628906 -8.0625 4.421875 -8.0625 C 5.285156 -8.0625 6.109375 -7.875 6.890625 -7.5 L 6.234375 -5.8125 C 5.929688 -5.945312 5.632812 -6.0625 5.34375 -6.15625 C 5.050781 -6.25 4.738281 -6.296875 4.40625 -6.296875 Z M 4.40625 -6.296875 "/></g></g></g><g fill="rgb(13.328552%, 63.139343%, 88.62915%)" fill-opacity="1"><g transform="translate(120.619608, 99.225841)"><g><path d="M 0.859375 0 L 0.859375 -7.953125 L 3.015625 -7.953125 L 3.015625 0 Z M 0.859375 0 "/></g></g></g><g fill="rgb(13.328552%, 63.139343%, 88.62915%)" fill-opacity="1"><g transform="translate(124.495501, 99.225841)"><g><path d="M 8.296875 -3.984375 C 8.296875 -2.648438 7.96875 -1.632812 7.3125 -0.9375 C 6.65625 -0.238281 5.695312 0.109375 4.4375 0.109375 C 3.1875 0.109375 2.226562 -0.238281 1.5625 -0.9375 C 0.894531 -1.632812 0.5625 -2.65625 0.5625 -4 C 0.5625 -5.320312 0.890625 -6.332031 1.546875 -7.03125 C 2.210938 -7.726562 3.175781 -8.078125 4.4375 -8.078125 C 5.707031 -8.078125 6.664062 -7.726562 7.3125 -7.03125 C 7.96875 -6.34375 8.296875 -5.328125 8.296875 -3.984375 Z M 2.828125 -3.984375 C 2.828125 -2.453125 3.363281 -1.6875 4.4375 -1.6875 C 4.976562 -1.6875 5.378906 -1.867188 5.640625 -2.234375 C 5.898438 -2.609375 6.03125 -3.191406 6.03125 -3.984375 C 6.03125 -4.773438 5.894531 -5.359375 5.625 -5.734375 C 5.363281 -6.117188 4.96875 -6.3125 4.4375 -6.3125 C 3.363281 -6.3125 2.828125 -5.535156 2.828125 -3.984375 Z M 2.828125 -3.984375 "/></g></g></g><g fill="rgb(13.328552%, 63.139343%, 88.62915%)" fill-opacity="1"><g transform="translate(133.367111, 99.225841)"><g/></g></g><g fill="rgb(13.328552%, 63.139343%, 88.62915%)" fill-opacity="1"><g transform="translate(136.259081, 99.225841)"><g><path d="M 5.734375 0 L 5.34375 -1.484375 L 2.765625 -1.484375 L 2.359375 0 L 0 0 L 2.59375 -7.984375 L 5.46875 -7.984375 L 8.09375 0 Z M 4.90625 -3.25 L 4.5625 -4.5625 C 4.476562 -4.851562 4.378906 -5.226562 4.265625 -5.6875 C 4.148438 -6.144531 4.078125 -6.472656 4.046875 -6.671875 C 4.015625 -6.484375 3.945312 -6.175781 3.84375 -5.75 C 3.75 -5.332031 3.535156 -4.5 3.203125 -3.25 Z M 4.90625 -3.25 "/></g></g></g><g fill="rgb(13.328552%, 63.139343%, 88.62915%)" fill-opacity="1"><g transform="translate(144.342466, 99.225841)"><g><path d="M 0.859375 0 L 0.859375 -7.953125 L 3.015625 -7.953125 L 3.015625 -1.734375 L 6.078125 -1.734375 L 6.078125 0 Z M 0.859375 0 "/></g></g></g><g fill="rgb(13.328552%, 63.139343%, 88.62915%)" fill-opacity="1"><g transform="translate(150.822219, 99.225841)"><g><path d="M 5.578125 0 L 0.859375 0 L 0.859375 -7.953125 L 5.578125 -7.953125 L 5.578125 -6.234375 L 3.015625 -6.234375 L 3.015625 -4.984375 L 5.390625 -4.984375 L 5.390625 -3.25 L 3.015625 -3.25 L 3.015625 -1.75 L 5.578125 -1.75 Z M 5.578125 0 "/></g></g></g><g fill="rgb(13.328552%, 63.139343%, 88.62915%)" fill-opacity="1"><g transform="translate(156.932323, 99.225841)"><g><path d="M 8.03125 0 L 5.53125 0 L 3.984375 -2.484375 L 2.453125 0 L 0.015625 0 L 2.65625 -4.0625 L 0.171875 -7.953125 L 2.5625 -7.953125 L 4 -5.5 L 5.375 -7.953125 L 7.828125 -7.953125 L 5.3125 -3.90625 Z M 8.03125 0 "/></g></g></g></svg>