<svg xmlns="http://www.w3.org/2000/svg" xmlns:xlink="http://www.w3.org/1999/xlink" width="336" zoomAndPan="magnify" viewBox="0 0 252 143.999998" height="192" preserveAspectRatio="xMidYMid meet" version="1.0"><defs><g/><clipPath id="id1"><path d="M 100.171875 56 L 108 56 L 108 58 L 100.171875 58 Z M 100.171875 56 " clip-rule="nonzero"/></clipPath><clipPath id="id2"><path d="M 144 56 L 151.921875 56 L 151.921875 58 L 144 58 Z M 144 56 " clip-rule="nonzero"/></clipPath><clipPath id="id3"><path d="M 125 31.519531 L 127 31.519531 L 127 39 L 125 39 Z M 125 31.519531 " clip-rule="nonzero"/></clipPath><clipPath id="id4"><path d="M 118 81 L 134 81 L 134 84.769531 L 118 84.769531 Z M 118 81 " clip-rule="nonzero"/></clipPath></defs><rect x="-25.2" width="302.4" fill="rgb(100%, 100%, 100%)" y="-14.4" height="172.799997" fill-opacity="1"/><rect x="-25.2" width="302.4" fill="rgb(0.389099%, 2.749634%, 9.01947%)" y="-14.4" height="172.799997" fill-opacity="1"/><rect x="-25.2" width="302.4" fill="rgb(100%, 100%, 100%)" y="-14.4" height="172.799997" fill-opacity="1"/><rect x="-25.2" width="302.4" fill="rgb(0.389099%, 2.749634%, 9.01947%)" y="-14.4" height="172.799997" fill-opacity="1"/><g clip-path="url(#id1)"><path fill="rgb(13.328552%, 63.139343%, 88.62915%)" d="M 106.851562 57.804688 L 100.820312 57.804688 C 100.488281 57.804688 100.214844 57.535156 100.214844 57.203125 C 100.214844 56.867188 100.488281 56.597656 100.820312 56.597656 L 106.851562 56.597656 C 107.1875 56.597656 107.457031 56.867188 107.457031 57.203125 C 107.457031 57.535156 107.1875 57.804688 106.851562 57.804688 " fill-opacity="1" fill-rule="nonzero"/></g><g clip-path="url(#id2)"><path fill="rgb(13.328552%, 63.139343%, 88.62915%)" d="M 151.269531 57.953125 L 145.238281 57.953125 C 144.902344 57.953125 144.632812 57.679688 144.632812 57.347656 C 144.632812 57.015625 144.902344 56.742188 145.238281 56.742188 L 151.269531 56.742188 C 151.605469 56.742188 151.875 57.015625 151.875 57.347656 C 151.875 57.679688 151.605469 57.953125 151.269531 57.953125 " fill-opacity="1" fill-rule="nonzero"/></g><path fill="rgb(13.328552%, 63.139343%, 88.62915%)" d="M 142.976562 48.859375 C 142.761719 48.859375 142.550781 48.746094 142.441406 48.542969 C 142.285156 48.25 142.394531 47.882812 142.6875 47.726562 L 147.996094 44.871094 C 148.292969 44.714844 148.65625 44.824219 148.816406 45.117188 C 148.976562 45.410156 148.867188 45.777344 148.570312 45.933594 L 143.261719 48.789062 C 143.171875 48.839844 143.074219 48.859375 142.976562 48.859375 " fill-opacity="1" fill-rule="nonzero"/><path fill="rgb(13.328552%, 63.139343%, 88.62915%)" d="M 135.183594 41.046875 C 135.085938 41.046875 134.988281 41.019531 134.898438 40.972656 C 134.601562 40.816406 134.492188 40.449219 134.648438 40.15625 L 137.5 34.855469 C 137.65625 34.5625 138.023438 34.449219 138.320312 34.609375 C 138.613281 34.765625 138.726562 35.132812 138.566406 35.425781 L 135.71875 40.726562 C 135.609375 40.929688 135.398438 41.046875 135.183594 41.046875 " fill-opacity="1" fill-rule="nonzero"/><path fill="rgb(13.328552%, 63.139343%, 88.62915%)" d="M 108.171875 48.3125 C 108.074219 48.3125 107.976562 48.289062 107.882812 48.238281 L 102.574219 45.386719 C 102.28125 45.226562 102.171875 44.859375 102.328125 44.566406 C 102.488281 44.273438 102.855469 44.164062 103.152344 44.320312 L 108.457031 47.175781 C 108.753906 47.332031 108.863281 47.699219 108.703125 47.992188 C 108.59375 48.195312 108.386719 48.3125 108.171875 48.3125 " fill-opacity="1" fill-rule="nonzero"/><path fill="rgb(13.328552%, 63.139343%, 88.62915%)" d="M 115.964844 40.496094 C 115.75 40.496094 115.539062 40.378906 115.429688 40.175781 L 112.578125 34.875 C 112.421875 34.582031 112.53125 34.214844 112.828125 34.058594 C 113.121094 33.902344 113.488281 34.011719 113.648438 34.304688 L 116.496094 39.605469 C 116.65625 39.898438 116.542969 40.265625 116.25 40.425781 C 116.160156 40.472656 116.0625 40.496094 115.964844 40.496094 " fill-opacity="1" fill-rule="nonzero"/><g clip-path="url(#id3)"><path fill="rgb(13.328552%, 63.139343%, 88.62915%)" d="M 126.175781 38.738281 C 126.175781 38.738281 126.171875 38.738281 126.171875 38.738281 C 125.839844 38.734375 125.566406 38.464844 125.570312 38.132812 L 125.585938 32.117188 C 125.585938 31.785156 125.859375 31.515625 126.191406 31.515625 C 126.191406 31.515625 126.195312 31.515625 126.195312 31.515625 C 126.527344 31.515625 126.796875 31.789062 126.796875 32.121094 L 126.78125 38.132812 C 126.777344 38.46875 126.507812 38.738281 126.175781 38.738281 " fill-opacity="1" fill-rule="nonzero"/></g><path fill="rgb(13.328552%, 63.139343%, 88.62915%)" d="M 130.683594 56.390625 C 130.628906 57.269531 130.351562 57.914062 129.847656 58.3125 C 129.652344 58.15625 129.46875 57.984375 129.304688 57.792969 C 128.503906 56.875 128.238281 55.71875 128.5 54.253906 C 128.75 52.828125 129.125 52.539062 129.214844 52.539062 C 129.214844 52.539062 129.214844 52.539062 129.21875 52.539062 C 129.742188 52.601562 130.792969 54.503906 130.683594 56.390625 Z M 123.152344 57.699219 C 123.03125 57.855469 122.898438 58 122.753906 58.136719 C 122.054688 57.503906 121.835938 56.554688 121.777344 55.886719 C 121.617188 54.070312 122.367188 52.589844 122.734375 52.523438 C 122.738281 52.523438 122.738281 52.523438 122.738281 52.523438 C 122.8125 52.523438 123.234375 52.816406 123.628906 54.277344 C 124.007812 55.675781 123.851562 56.796875 123.152344 57.699219 Z M 136.476562 60.046875 C 136.449219 60.046875 134.738281 60.097656 132.902344 59.667969 C 132.828125 59.652344 132.601562 59.601562 132.515625 59.574219 C 131.964844 59.425781 131.414062 59.230469 130.902344 58.976562 C 131.484375 58.371094 131.828125 57.515625 131.890625 56.460938 C 132.015625 54.304688 130.871094 51.515625 129.359375 51.339844 C 128.652344 51.257812 127.726562 51.660156 127.304688 54.042969 C 126.984375 55.867188 127.347656 57.394531 128.390625 58.585938 C 128.449219 58.65625 128.511719 58.722656 128.574219 58.785156 C 128.441406 58.800781 128.300781 58.808594 128.15625 58.808594 L 124.71875 58.796875 C 124.410156 58.796875 124.132812 58.765625 123.886719 58.707031 C 123.964844 58.621094 124.039062 58.53125 124.109375 58.441406 C 125.042969 57.238281 125.277344 55.726562 124.796875 53.960938 C 124.152344 51.570312 123.207031 51.214844 122.523438 51.335938 C 121.152344 51.578125 120.394531 53.984375 120.574219 55.992188 C 120.679688 57.199219 121.089844 58.171875 121.753906 58.855469 C 119.445312 60.140625 116.042969 60.128906 115.992188 60.128906 C 115.664062 60.121094 115.382812 60.390625 115.378906 60.726562 C 115.375 61.058594 115.644531 61.332031 115.976562 61.335938 C 115.988281 61.335938 116.003906 61.335938 116.027344 61.335938 C 116.320312 61.335938 117.710938 61.316406 119.3125 60.976562 L 123.378906 75.941406 C 123.453125 76.210938 123.695312 76.386719 123.964844 76.386719 C 124.015625 76.386719 124.070312 76.382812 124.121094 76.367188 C 124.445312 76.28125 124.636719 75.949219 124.546875 75.625 L 120.484375 60.679688 C 121.296875 60.429688 122.109375 60.085938 122.820312 59.613281 C 123.371094 59.871094 124.007812 60.003906 124.714844 60.003906 L 128.152344 60.015625 C 128.753906 60.015625 129.296875 59.917969 129.769531 59.730469 C 130.410156 60.121094 131.113281 60.410156 131.820312 60.628906 L 127.769531 75.539062 C 127.683594 75.859375 127.875 76.191406 128.195312 76.277344 C 128.25 76.292969 128.300781 76.300781 128.355469 76.300781 C 128.621094 76.300781 128.867188 76.125 128.941406 75.855469 L 132.996094 60.925781 C 134.820312 61.304688 136.398438 61.257812 136.523438 61.253906 C 136.855469 61.238281 137.117188 60.960938 137.105469 60.625 C 137.09375 60.292969 136.804688 60.03125 136.476562 60.046875 " fill-opacity="1" fill-rule="nonzero"/><g clip-path="url(#id4)"><path fill="rgb(13.328552%, 63.139343%, 88.62915%)" d="M 132.144531 81.851562 C 131.945312 82.882812 131.425781 83.5625 130.980469 83.5625 L 121.125 83.5625 C 120.679688 83.5625 120.160156 82.882812 119.960938 81.851562 L 118.734375 81.851562 C 118.988281 83.550781 119.953125 84.769531 121.125 84.769531 L 130.980469 84.769531 C 132.152344 84.769531 133.117188 83.550781 133.367188 81.851562 L 132.144531 81.851562 " fill-opacity="1" fill-rule="nonzero"/></g><path fill="rgb(10.978699%, 23.919678%, 52.549744%)" d="M 132.777344 81.171875 L 119.441406 81.171875 C 119.007812 81.171875 118.640625 80.902344 118.640625 80.582031 L 118.640625 79.121094 L 133.582031 79.121094 L 133.582031 80.582031 C 133.582031 80.902344 133.214844 81.171875 132.777344 81.171875 Z M 118.640625 76.554688 L 133.582031 76.554688 L 133.582031 77.914062 L 118.640625 77.914062 Z M 110.578125 57.101562 C 110.578125 48.5625 117.542969 41.613281 126.109375 41.613281 C 134.671875 41.613281 141.640625 48.5625 141.640625 57.101562 C 141.640625 62.625 138.652344 67.773438 133.84375 70.53125 C 133.65625 70.640625 133.539062 70.839844 133.539062 71.054688 L 133.539062 75.347656 L 118.679688 75.347656 L 118.679688 71.054688 C 118.679688 70.839844 118.5625 70.640625 118.375 70.53125 C 113.5625 67.773438 110.578125 62.625 110.578125 57.101562 Z M 142.851562 57.101562 C 142.851562 47.894531 135.339844 40.40625 126.109375 40.40625 C 116.878906 40.40625 109.363281 47.894531 109.363281 57.101562 C 109.363281 62.941406 112.460938 68.386719 117.464844 71.402344 L 117.464844 75.898438 C 117.441406 75.960938 117.429688 76.03125 117.429688 76.101562 L 117.429688 80.582031 C 117.429688 81.574219 118.332031 82.378906 119.441406 82.378906 L 132.777344 82.378906 C 133.890625 82.378906 134.792969 81.574219 134.792969 80.582031 L 134.792969 75.980469 C 134.792969 75.902344 134.777344 75.828125 134.75 75.761719 L 134.75 71.402344 C 139.757812 68.386719 142.851562 62.941406 142.851562 57.101562 " fill-opacity="1" fill-rule="nonzero"/><g fill="rgb(13.328552%, 63.139343%, 88.62915%)" fill-opacity="1"><g transform="translate(99.121989, 108.017528)"><g><path d="M 2.8125 -1.53125 C 2.8125 -1.03125 2.675781 -0.648438 2.40625 -0.390625 C 2.144531 -0.128906 1.757812 0 1.25 0 L 0.40625 0 L 0.40625 -3.015625 L 1.34375 -3.015625 C 1.8125 -3.015625 2.171875 -2.882812 2.421875 -2.625 C 2.679688 -2.363281 2.8125 -2 2.8125 -1.53125 Z M 2.453125 -1.515625 C 2.453125 -1.910156 2.351562 -2.207031 2.15625 -2.40625 C 1.957031 -2.601562 1.660156 -2.703125 1.265625 -2.703125 L 0.765625 -2.703125 L 0.765625 -0.296875 L 1.1875 -0.296875 C 1.601562 -0.296875 1.914062 -0.398438 2.125 -0.609375 C 2.34375 -0.816406 2.453125 -1.117188 2.453125 -1.515625 Z M 2.453125 -1.515625 "/></g></g></g><g fill="rgb(13.328552%, 63.139343%, 88.62915%)" fill-opacity="1"><g transform="translate(102.959451, 108.017528)"><g><path d="M 2.09375 0 L 0.40625 0 L 0.40625 -3.015625 L 2.09375 -3.015625 L 2.09375 -2.703125 L 0.765625 -2.703125 L 0.765625 -1.734375 L 2.015625 -1.734375 L 2.015625 -1.421875 L 0.765625 -1.421875 L 0.765625 -0.3125 L 2.09375 -0.3125 Z M 2.09375 0 "/></g></g></g><g fill="rgb(13.328552%, 63.139343%, 88.62915%)" fill-opacity="1"><g transform="translate(106.067308, 108.017528)"><g><path d="M 2.109375 -0.796875 C 2.109375 -0.535156 2.007812 -0.328125 1.8125 -0.171875 C 1.625 -0.0234375 1.367188 0.046875 1.046875 0.046875 C 0.679688 0.046875 0.40625 0 0.21875 -0.09375 L 0.21875 -0.4375 C 0.34375 -0.382812 0.476562 -0.34375 0.625 -0.3125 C 0.769531 -0.28125 0.914062 -0.265625 1.0625 -0.265625 C 1.289062 -0.265625 1.460938 -0.304688 1.578125 -0.390625 C 1.703125 -0.484375 1.765625 -0.609375 1.765625 -0.765625 C 1.765625 -0.867188 1.742188 -0.953125 1.703125 -1.015625 C 1.660156 -1.085938 1.585938 -1.148438 1.484375 -1.203125 C 1.390625 -1.265625 1.238281 -1.332031 1.03125 -1.40625 C 0.757812 -1.5 0.5625 -1.613281 0.4375 -1.75 C 0.3125 -1.894531 0.25 -2.078125 0.25 -2.296875 C 0.25 -2.523438 0.335938 -2.707031 0.515625 -2.84375 C 0.691406 -2.988281 0.925781 -3.0625 1.21875 -3.0625 C 1.507812 -3.0625 1.78125 -3.003906 2.03125 -2.890625 L 1.921875 -2.578125 C 1.679688 -2.679688 1.441406 -2.734375 1.203125 -2.734375 C 1.015625 -2.734375 0.867188 -2.691406 0.765625 -2.609375 C 0.660156 -2.535156 0.609375 -2.429688 0.609375 -2.296875 C 0.609375 -2.191406 0.628906 -2.101562 0.671875 -2.03125 C 0.710938 -1.96875 0.773438 -1.90625 0.859375 -1.84375 C 0.953125 -1.789062 1.09375 -1.734375 1.28125 -1.671875 C 1.59375 -1.554688 1.804688 -1.429688 1.921875 -1.296875 C 2.046875 -1.171875 2.109375 -1.003906 2.109375 -0.796875 Z M 2.109375 -0.796875 "/></g></g></g><g fill="rgb(13.328552%, 63.139343%, 88.62915%)" fill-opacity="1"><g transform="translate(109.144249, 108.017528)"><g><path d="M 2.09375 0 L 0.40625 0 L 0.40625 -3.015625 L 2.09375 -3.015625 L 2.09375 -2.703125 L 0.765625 -2.703125 L 0.765625 -1.734375 L 2.015625 -1.734375 L 2.015625 -1.421875 L 0.765625 -1.421875 L 0.765625 -0.3125 L 2.09375 -0.3125 Z M 2.09375 0 "/></g></g></g><g fill="rgb(13.328552%, 63.139343%, 88.62915%)" fill-opacity="1"><g transform="translate(112.252105, 108.017528)"><g><path d="M 2.765625 0 L 2.359375 0 L 0.71875 -2.53125 L 0.703125 -2.53125 C 0.722656 -2.226562 0.734375 -1.957031 0.734375 -1.71875 L 0.734375 0 L 0.40625 0 L 0.40625 -3.015625 L 0.8125 -3.015625 L 2.453125 -0.5 L 2.46875 -0.5 C 2.46875 -0.53125 2.460938 -0.644531 2.453125 -0.84375 C 2.441406 -1.050781 2.4375 -1.195312 2.4375 -1.28125 L 2.4375 -3.015625 L 2.765625 -3.015625 Z M 2.765625 0 "/></g></g></g><g fill="rgb(13.328552%, 63.139343%, 88.62915%)" fill-opacity="1"><g transform="translate(116.194681, 108.017528)"><g><path d="M 2.140625 -3.015625 L 2.515625 -3.015625 L 1.421875 0 L 1.078125 0 L 0 -3.015625 L 0.375 -3.015625 L 1.0625 -1.0625 C 1.144531 -0.84375 1.207031 -0.625 1.25 -0.40625 C 1.300781 -0.632812 1.367188 -0.859375 1.453125 -1.078125 Z M 2.140625 -3.015625 "/></g></g></g><g fill="rgb(13.328552%, 63.139343%, 88.62915%)" fill-opacity="1"><g transform="translate(119.46742, 108.017528)"><g><path d="M 3.03125 -1.515625 C 3.03125 -1.023438 2.90625 -0.640625 2.65625 -0.359375 C 2.414062 -0.0859375 2.078125 0.046875 1.640625 0.046875 C 1.203125 0.046875 0.859375 -0.0859375 0.609375 -0.359375 C 0.367188 -0.628906 0.25 -1.015625 0.25 -1.515625 C 0.25 -2.003906 0.367188 -2.382812 0.609375 -2.65625 C 0.859375 -2.925781 1.207031 -3.0625 1.65625 -3.0625 C 2.082031 -3.0625 2.414062 -2.921875 2.65625 -2.640625 C 2.90625 -2.367188 3.03125 -1.992188 3.03125 -1.515625 Z M 0.625 -1.515625 C 0.625 -1.097656 0.710938 -0.785156 0.890625 -0.578125 C 1.066406 -0.367188 1.316406 -0.265625 1.640625 -0.265625 C 1.972656 -0.265625 2.222656 -0.367188 2.390625 -0.578125 C 2.566406 -0.785156 2.65625 -1.097656 2.65625 -1.515625 C 2.65625 -1.921875 2.570312 -2.226562 2.40625 -2.4375 C 2.238281 -2.644531 1.988281 -2.75 1.65625 -2.75 C 1.320312 -2.75 1.066406 -2.640625 0.890625 -2.421875 C 0.710938 -2.210938 0.625 -1.910156 0.625 -1.515625 Z M 0.625 -1.515625 "/></g></g></g><g fill="rgb(13.328552%, 63.139343%, 88.62915%)" fill-opacity="1"><g transform="translate(123.515108, 108.017528)"><g><path d="M 0.40625 0 L 0.40625 -3.015625 L 0.765625 -3.015625 L 0.765625 -0.3125 L 2.09375 -0.3125 L 2.09375 0 Z M 0.40625 0 "/></g></g></g><g fill="rgb(13.328552%, 63.139343%, 88.62915%)" fill-opacity="1"><g transform="translate(126.466326, 108.017528)"><g><path d="M 2.140625 -3.015625 L 2.515625 -3.015625 L 1.421875 0 L 1.078125 0 L 0 -3.015625 L 0.375 -3.015625 L 1.0625 -1.0625 C 1.144531 -0.84375 1.207031 -0.625 1.25 -0.40625 C 1.300781 -0.632812 1.367188 -0.859375 1.453125 -1.078125 Z M 2.140625 -3.015625 "/></g></g></g><g fill="rgb(13.328552%, 63.139343%, 88.62915%)" fill-opacity="1"><g transform="translate(129.739065, 108.017528)"><g><path d="M 2.09375 0 L 0.40625 0 L 0.40625 -3.015625 L 2.09375 -3.015625 L 2.09375 -2.703125 L 0.765625 -2.703125 L 0.765625 -1.734375 L 2.015625 -1.734375 L 2.015625 -1.421875 L 0.765625 -1.421875 L 0.765625 -0.3125 L 2.09375 -0.3125 Z M 2.09375 0 "/></g></g></g><g fill="rgb(13.328552%, 63.139343%, 88.62915%)" fill-opacity="1"><g transform="translate(132.846922, 108.017528)"><g><path d="M 2.8125 -1.53125 C 2.8125 -1.03125 2.675781 -0.648438 2.40625 -0.390625 C 2.144531 -0.128906 1.757812 0 1.25 0 L 0.40625 0 L 0.40625 -3.015625 L 1.34375 -3.015625 C 1.8125 -3.015625 2.171875 -2.882812 2.421875 -2.625 C 2.679688 -2.363281 2.8125 -2 2.8125 -1.53125 Z M 2.453125 -1.515625 C 2.453125 -1.910156 2.351562 -2.207031 2.15625 -2.40625 C 1.957031 -2.601562 1.660156 -2.703125 1.265625 -2.703125 L 0.765625 -2.703125 L 0.765625 -0.296875 L 1.1875 -0.296875 C 1.601562 -0.296875 1.914062 -0.398438 2.125 -0.609375 C 2.34375 -0.816406 2.453125 -1.117188 2.453125 -1.515625 Z M 2.453125 -1.515625 "/></g></g></g><g fill="rgb(13.328552%, 63.139343%, 88.62915%)" fill-opacity="1"><g transform="translate(136.684384, 108.017528)"><g><path d="M 3.03125 -1.515625 C 3.03125 -1.023438 2.90625 -0.640625 2.65625 -0.359375 C 2.414062 -0.0859375 2.078125 0.046875 1.640625 0.046875 C 1.203125 0.046875 0.859375 -0.0859375 0.609375 -0.359375 C 0.367188 -0.628906 0.25 -1.015625 0.25 -1.515625 C 0.25 -2.003906 0.367188 -2.382812 0.609375 -2.65625 C 0.859375 -2.925781 1.207031 -3.0625 1.65625 -3.0625 C 2.082031 -3.0625 2.414062 -2.921875 2.65625 -2.640625 C 2.90625 -2.367188 3.03125 -1.992188 3.03125 -1.515625 Z M 0.625 -1.515625 C 0.625 -1.097656 0.710938 -0.785156 0.890625 -0.578125 C 1.066406 -0.367188 1.316406 -0.265625 1.640625 -0.265625 C 1.972656 -0.265625 2.222656 -0.367188 2.390625 -0.578125 C 2.566406 -0.785156 2.65625 -1.097656 2.65625 -1.515625 C 2.65625 -1.921875 2.570312 -2.226562 2.40625 -2.4375 C 2.238281 -2.644531 1.988281 -2.75 1.65625 -2.75 C 1.320312 -2.75 1.066406 -2.640625 0.890625 -2.421875 C 0.710938 -2.210938 0.625 -1.910156 0.625 -1.515625 Z M 0.625 -1.515625 "/></g></g></g><g fill="rgb(13.328552%, 63.139343%, 88.62915%)" fill-opacity="1"><g transform="translate(140.732073, 108.017528)"><g><path d="M 0.765625 -1.25 L 0.765625 0 L 0.40625 0 L 0.40625 -3.015625 L 1.234375 -3.015625 C 1.609375 -3.015625 1.882812 -2.941406 2.0625 -2.796875 C 2.238281 -2.660156 2.328125 -2.445312 2.328125 -2.15625 C 2.328125 -1.757812 2.125 -1.492188 1.71875 -1.359375 L 2.53125 0 L 2.125 0 L 1.390625 -1.25 Z M 0.765625 -1.546875 L 1.25 -1.546875 C 1.488281 -1.546875 1.664062 -1.59375 1.78125 -1.6875 C 1.90625 -1.789062 1.96875 -1.941406 1.96875 -2.140625 C 1.96875 -2.335938 1.90625 -2.476562 1.78125 -2.5625 C 1.664062 -2.65625 1.476562 -2.703125 1.21875 -2.703125 L 0.765625 -2.703125 Z M 0.765625 -1.546875 "/></g></g></g><g fill="rgb(13.328552%, 63.139343%, 88.62915%)" fill-opacity="1"><g transform="translate(144.101681, 108.017528)"><g/></g></g><g fill="rgb(13.328552%, 63.139343%, 88.62915%)" fill-opacity="1"><g transform="translate(145.958489, 108.017528)"><g><path d="M 2.09375 0 L 0.40625 0 L 0.40625 -3.015625 L 2.09375 -3.015625 L 2.09375 -2.703125 L 0.765625 -2.703125 L 0.765625 -1.734375 L 2.015625 -1.734375 L 2.015625 -1.421875 L 0.765625 -1.421875 L 0.765625 -0.3125 L 2.09375 -0.3125 Z M 2.09375 0 "/></g></g></g><g fill="rgb(13.328552%, 63.139343%, 88.62915%)" fill-opacity="1"><g transform="translate(149.066345, 108.017528)"><g><path d="M 1.75 0 L 0.71875 -2.671875 L 0.703125 -2.671875 C 0.722656 -2.460938 0.734375 -2.210938 0.734375 -1.921875 L 0.734375 0 L 0.40625 0 L 0.40625 -3.015625 L 0.9375 -3.015625 L 1.890625 -0.53125 L 1.90625 -0.53125 L 2.875 -3.015625 L 3.390625 -3.015625 L 3.390625 0 L 3.046875 0 L 3.046875 -1.9375 C 3.046875 -2.164062 3.054688 -2.410156 3.078125 -2.671875 L 3.0625 -2.671875 L 2.03125 0 Z M 1.75 0 "/></g></g></g><g fill="rgb(13.328552%, 63.139343%, 88.62915%)" fill-opacity="1"><g transform="translate(100.719489, 113.777528)"><g><path d="M 2.8125 -1.53125 C 2.8125 -1.03125 2.675781 -0.648438 2.40625 -0.390625 C 2.144531 -0.128906 1.757812 0 1.25 0 L 0.40625 0 L 0.40625 -3.015625 L 1.34375 -3.015625 C 1.8125 -3.015625 2.171875 -2.882812 2.421875 -2.625 C 2.679688 -2.363281 2.8125 -2 2.8125 -1.53125 Z M 2.453125 -1.515625 C 2.453125 -1.910156 2.351562 -2.207031 2.15625 -2.40625 C 1.957031 -2.601562 1.660156 -2.703125 1.265625 -2.703125 L 0.765625 -2.703125 L 0.765625 -0.296875 L 1.1875 -0.296875 C 1.601562 -0.296875 1.914062 -0.398438 2.125 -0.609375 C 2.34375 -0.816406 2.453125 -1.117188 2.453125 -1.515625 Z M 2.453125 -1.515625 "/></g></g></g><g fill="rgb(13.328552%, 63.139343%, 88.62915%)" fill-opacity="1"><g transform="translate(104.556951, 113.777528)"><g><path d="M 2.09375 0 L 0.40625 0 L 0.40625 -3.015625 L 2.09375 -3.015625 L 2.09375 -2.703125 L 0.765625 -2.703125 L 0.765625 -1.734375 L 2.015625 -1.734375 L 2.015625 -1.421875 L 0.765625 -1.421875 L 0.765625 -0.3125 L 2.09375 -0.3125 Z M 2.09375 0 "/></g></g></g><g fill="rgb(13.328552%, 63.139343%, 88.62915%)" fill-opacity="1"><g transform="translate(107.664808, 113.777528)"><g><path d="M 2.109375 -0.796875 C 2.109375 -0.535156 2.007812 -0.328125 1.8125 -0.171875 C 1.625 -0.0234375 1.367188 0.046875 1.046875 0.046875 C 0.679688 0.046875 0.40625 0 0.21875 -0.09375 L 0.21875 -0.4375 C 0.34375 -0.382812 0.476562 -0.34375 0.625 -0.3125 C 0.769531 -0.28125 0.914062 -0.265625 1.0625 -0.265625 C 1.289062 -0.265625 1.460938 -0.304688 1.578125 -0.390625 C 1.703125 -0.484375 1.765625 -0.609375 1.765625 -0.765625 C 1.765625 -0.867188 1.742188 -0.953125 1.703125 -1.015625 C 1.660156 -1.085938 1.585938 -1.148438 1.484375 -1.203125 C 1.390625 -1.265625 1.238281 -1.332031 1.03125 -1.40625 C 0.757812 -1.5 0.5625 -1.613281 0.4375 -1.75 C 0.3125 -1.894531 0.25 -2.078125 0.25 -2.296875 C 0.25 -2.523438 0.335938 -2.707031 0.515625 -2.84375 C 0.691406 -2.988281 0.925781 -3.0625 1.21875 -3.0625 C 1.507812 -3.0625 1.78125 -3.003906 2.03125 -2.890625 L 1.921875 -2.578125 C 1.679688 -2.679688 1.441406 -2.734375 1.203125 -2.734375 C 1.015625 -2.734375 0.867188 -2.691406 0.765625 -2.609375 C 0.660156 -2.535156 0.609375 -2.429688 0.609375 -2.296875 C 0.609375 -2.191406 0.628906 -2.101562 0.671875 -2.03125 C 0.710938 -1.96875 0.773438 -1.90625 0.859375 -1.84375 C 0.953125 -1.789062 1.09375 -1.734375 1.28125 -1.671875 C 1.59375 -1.554688 1.804688 -1.429688 1.921875 -1.296875 C 2.046875 -1.171875 2.109375 -1.003906 2.109375 -0.796875 Z M 2.109375 -0.796875 "/></g></g></g><g fill="rgb(13.328552%, 63.139343%, 88.62915%)" fill-opacity="1"><g transform="translate(110.741749, 113.777528)"><g><path d="M 2.09375 0 L 0.40625 0 L 0.40625 -3.015625 L 2.09375 -3.015625 L 2.09375 -2.703125 L 0.765625 -2.703125 L 0.765625 -1.734375 L 2.015625 -1.734375 L 2.015625 -1.421875 L 0.765625 -1.421875 L 0.765625 -0.3125 L 2.09375 -0.3125 Z M 2.09375 0 "/></g></g></g><g fill="rgb(13.328552%, 63.139343%, 88.62915%)" fill-opacity="1"><g transform="translate(113.849605, 113.777528)"><g><path d="M 2.765625 0 L 2.359375 0 L 0.71875 -2.53125 L 0.703125 -2.53125 C 0.722656 -2.226562 0.734375 -1.957031 0.734375 -1.71875 L 0.734375 0 L 0.40625 0 L 0.40625 -3.015625 L 0.8125 -3.015625 L 2.453125 -0.5 L 2.46875 -0.5 C 2.46875 -0.53125 2.460938 -0.644531 2.453125 -0.84375 C 2.441406 -1.050781 2.4375 -1.195312 2.4375 -1.28125 L 2.4375 -3.015625 L 2.765625 -3.015625 Z M 2.765625 0 "/></g></g></g><g fill="rgb(13.328552%, 63.139343%, 88.62915%)" fill-opacity="1"><g transform="translate(117.792181, 113.777528)"><g><path d="M 2.140625 -3.015625 L 2.515625 -3.015625 L 1.421875 0 L 1.078125 0 L 0 -3.015625 L 0.375 -3.015625 L 1.0625 -1.0625 C 1.144531 -0.84375 1.207031 -0.625 1.25 -0.40625 C 1.300781 -0.632812 1.367188 -0.859375 1.453125 -1.078125 Z M 2.140625 -3.015625 "/></g></g></g><g fill="rgb(13.328552%, 63.139343%, 88.62915%)" fill-opacity="1"><g transform="translate(121.06492, 113.777528)"><g><path d="M 3.03125 -1.515625 C 3.03125 -1.023438 2.90625 -0.640625 2.65625 -0.359375 C 2.414062 -0.0859375 2.078125 0.046875 1.640625 0.046875 C 1.203125 0.046875 0.859375 -0.0859375 0.609375 -0.359375 C 0.367188 -0.628906 0.25 -1.015625 0.25 -1.515625 C 0.25 -2.003906 0.367188 -2.382812 0.609375 -2.65625 C 0.859375 -2.925781 1.207031 -3.0625 1.65625 -3.0625 C 2.082031 -3.0625 2.414062 -2.921875 2.65625 -2.640625 C 2.90625 -2.367188 3.03125 -1.992188 3.03125 -1.515625 Z M 0.625 -1.515625 C 0.625 -1.097656 0.710938 -0.785156 0.890625 -0.578125 C 1.066406 -0.367188 1.316406 -0.265625 1.640625 -0.265625 C 1.972656 -0.265625 2.222656 -0.367188 2.390625 -0.578125 C 2.566406 -0.785156 2.65625 -1.097656 2.65625 -1.515625 C 2.65625 -1.921875 2.570312 -2.226562 2.40625 -2.4375 C 2.238281 -2.644531 1.988281 -2.75 1.65625 -2.75 C 1.320312 -2.75 1.066406 -2.640625 0.890625 -2.421875 C 0.710938 -2.210938 0.625 -1.910156 0.625 -1.515625 Z M 0.625 -1.515625 "/></g></g></g><g fill="rgb(13.328552%, 63.139343%, 88.62915%)" fill-opacity="1"><g transform="translate(125.112608, 113.777528)"><g><path d="M 0.40625 0 L 0.40625 -3.015625 L 0.765625 -3.015625 L 0.765625 -0.3125 L 2.09375 -0.3125 L 2.09375 0 Z M 0.40625 0 "/></g></g></g><g fill="rgb(13.328552%, 63.139343%, 88.62915%)" fill-opacity="1"><g transform="translate(128.063826, 113.777528)"><g><path d="M 2.140625 -3.015625 L 2.515625 -3.015625 L 1.421875 0 L 1.078125 0 L 0 -3.015625 L 0.375 -3.015625 L 1.0625 -1.0625 C 1.144531 -0.84375 1.207031 -0.625 1.25 -0.40625 C 1.300781 -0.632812 1.367188 -0.859375 1.453125 -1.078125 Z M 2.140625 -3.015625 "/></g></g></g><g fill="rgb(13.328552%, 63.139343%, 88.62915%)" fill-opacity="1"><g transform="translate(131.336565, 113.777528)"><g><path d="M 0.40625 0 L 0.40625 -3.015625 L 0.765625 -3.015625 L 0.765625 0 Z M 0.40625 0 "/></g></g></g><g fill="rgb(13.328552%, 63.139343%, 88.62915%)" fill-opacity="1"><g transform="translate(133.273754, 113.777528)"><g><path d="M 1.75 0 L 0.71875 -2.671875 L 0.703125 -2.671875 C 0.722656 -2.460938 0.734375 -2.210938 0.734375 -1.921875 L 0.734375 0 L 0.40625 0 L 0.40625 -3.015625 L 0.9375 -3.015625 L 1.890625 -0.53125 L 1.90625 -0.53125 L 2.875 -3.015625 L 3.390625 -3.015625 L 3.390625 0 L 3.046875 0 L 3.046875 -1.9375 C 3.046875 -2.164062 3.054688 -2.410156 3.078125 -2.671875 L 3.0625 -2.671875 L 2.03125 0 Z M 1.75 0 "/></g></g></g><g fill="rgb(13.328552%, 63.139343%, 88.62915%)" fill-opacity="1"><g transform="translate(137.844945, 113.777528)"><g><path d="M 2.09375 0 L 0.40625 0 L 0.40625 -3.015625 L 2.09375 -3.015625 L 2.09375 -2.703125 L 0.765625 -2.703125 L 0.765625 -1.734375 L 2.015625 -1.734375 L 2.015625 -1.421875 L 0.765625 -1.421875 L 0.765625 -0.3125 L 2.09375 -0.3125 Z M 2.09375 0 "/></g></g></g><g fill="rgb(13.328552%, 63.139343%, 88.62915%)" fill-opacity="1"><g transform="translate(140.952801, 113.777528)"><g><path d="M 2.765625 0 L 2.359375 0 L 0.71875 -2.53125 L 0.703125 -2.53125 C 0.722656 -2.226562 0.734375 -1.957031 0.734375 -1.71875 L 0.734375 0 L 0.40625 0 L 0.40625 -3.015625 L 0.8125 -3.015625 L 2.453125 -0.5 L 2.46875 -0.5 C 2.46875 -0.53125 2.460938 -0.644531 2.453125 -0.84375 C 2.441406 -1.050781 2.4375 -1.195312 2.4375 -1.28125 L 2.4375 -3.015625 L 2.765625 -3.015625 Z M 2.765625 0 "/></g></g></g><g fill="rgb(13.328552%, 63.139343%, 88.62915%)" fill-opacity="1"><g transform="translate(144.895377, 113.777528)"><g><path d="M 1.34375 0 L 0.984375 0 L 0.984375 -2.703125 L 0.03125 -2.703125 L 0.03125 -3.015625 L 2.296875 -3.015625 L 2.296875 -2.703125 L 1.34375 -2.703125 Z M 1.34375 0 "/></g></g></g><g fill="rgb(13.328552%, 63.139343%, 88.62915%)" fill-opacity="1"><g transform="translate(147.990867, 113.777528)"><g><path d="M 3.03125 -1.515625 C 3.03125 -1.023438 2.90625 -0.640625 2.65625 -0.359375 C 2.414062 -0.0859375 2.078125 0.046875 1.640625 0.046875 C 1.203125 0.046875 0.859375 -0.0859375 0.609375 -0.359375 C 0.367188 -0.628906 0.25 -1.015625 0.25 -1.515625 C 0.25 -2.003906 0.367188 -2.382812 0.609375 -2.65625 C 0.859375 -2.925781 1.207031 -3.0625 1.65625 -3.0625 C 2.082031 -3.0625 2.414062 -2.921875 2.65625 -2.640625 C 2.90625 -2.367188 3.03125 -1.992188 3.03125 -1.515625 Z M 0.625 -1.515625 C 0.625 -1.097656 0.710938 -0.785156 0.890625 -0.578125 C 1.066406 -0.367188 1.316406 -0.265625 1.640625 -0.265625 C 1.972656 -0.265625 2.222656 -0.367188 2.390625 -0.578125 C 2.566406 -0.785156 2.65625 -1.097656 2.65625 -1.515625 C 2.65625 -1.921875 2.570312 -2.226562 2.40625 -2.4375 C 2.238281 -2.644531 1.988281 -2.75 1.65625 -2.75 C 1.320312 -2.75 1.066406 -2.640625 0.890625 -2.421875 C 0.710938 -2.210938 0.625 -1.910156 0.625 -1.515625 Z M 0.625 -1.515625 "/></g></g></g><g fill="rgb(13.328552%, 63.139343%, 88.62915%)" fill-opacity="1"><g transform="translate(87.01404, 99.225841)"><g><path d="M 4.328125 0 L 2.703125 -5.734375 L 2.65625 -5.734375 C 2.726562 -4.753906 2.765625 -3.992188 2.765625 -3.453125 L 2.765625 0 L 0.859375 0 L 0.859375 -7.953125 L 3.71875 -7.953125 L 5.375 -2.3125 L 5.421875 -2.3125 L 7.046875 -7.953125 L 9.921875 -7.953125 L 9.921875 0 L 7.9375 0 L 7.9375 -3.484375 C 7.9375 -3.671875 7.9375 -3.875 7.9375 -4.09375 C 7.945312 -4.3125 7.976562 -4.851562 8.03125 -5.71875 L 7.96875 -5.71875 L 6.375 0 Z M 4.328125 0 "/></g></g></g><g fill="rgb(13.328552%, 63.139343%, 88.62915%)" fill-opacity="1"><g transform="translate(97.777389, 99.225841)"><g><path d="M 5.734375 0 L 5.34375 -1.484375 L 2.765625 -1.484375 L 2.359375 0 L 0 0 L 2.59375 -7.984375 L 5.46875 -7.984375 L 8.09375 0 Z M 4.90625 -3.25 L 4.5625 -4.5625 C 4.476562 -4.851562 4.378906 -5.226562 4.265625 -5.6875 C 4.148438 -6.144531 4.078125 -6.472656 4.046875 -6.671875 C 4.015625 -6.484375 3.945312 -6.175781 3.84375 -5.75 C 3.75 -5.332031 3.535156 -4.5 3.203125 -3.25 Z M 2.4375 -8.75 L 2.4375 -8.90625 C 3 -9.507812 3.351562 -9.894531 3.5 -10.0625 C 3.644531 -10.238281 3.769531 -10.394531 3.875 -10.53125 L 6.203125 -10.53125 L 6.203125 -10.421875 C 5.910156 -10.191406 5.507812 -9.894531 5 -9.53125 C 4.488281 -9.175781 4.101562 -8.914062 3.84375 -8.75 Z M 2.4375 -8.75 "/></g></g></g><g fill="rgb(13.328552%, 63.139343%, 88.62915%)" fill-opacity="1"><g transform="translate(105.860773, 99.225841)"><g><path d="M 3.015625 -2.890625 L 3.015625 0 L 0.859375 0 L 0.859375 -7.953125 L 3.46875 -7.953125 C 5.625 -7.953125 6.703125 -7.171875 6.703125 -5.609375 C 6.703125 -4.679688 6.253906 -3.96875 5.359375 -3.46875 L 7.671875 0 L 5.234375 0 L 3.546875 -2.890625 Z M 3.015625 -4.515625 L 3.40625 -4.515625 C 4.15625 -4.515625 4.53125 -4.84375 4.53125 -5.5 C 4.53125 -6.050781 4.164062 -6.328125 3.4375 -6.328125 L 3.015625 -6.328125 Z M 3.015625 -4.515625 "/></g></g></g><g fill="rgb(13.328552%, 63.139343%, 88.62915%)" fill-opacity="1"><g transform="translate(113.395118, 99.225841)"><g><path d="M 4.40625 -6.296875 C 3.894531 -6.296875 3.492188 -6.085938 3.203125 -5.671875 C 2.921875 -5.253906 2.78125 -4.675781 2.78125 -3.9375 C 2.78125 -2.40625 3.359375 -1.640625 4.515625 -1.640625 C 4.867188 -1.640625 5.207031 -1.6875 5.53125 -1.78125 C 5.863281 -1.882812 6.195312 -2.007812 6.53125 -2.15625 L 6.53125 -0.328125 C 5.875 -0.0351562 5.125 0.109375 4.28125 0.109375 C 3.082031 0.109375 2.160156 -0.238281 1.515625 -0.9375 C 0.878906 -1.632812 0.5625 -2.640625 0.5625 -3.953125 C 0.5625 -4.773438 0.71875 -5.5 1.03125 -6.125 C 1.34375 -6.75 1.785156 -7.226562 2.359375 -7.5625 C 2.941406 -7.894531 3.628906 -8.0625 4.421875 -8.0625 C 5.285156 -8.0625 6.109375 -7.875 6.890625 -7.5 L 6.234375 -5.8125 C 5.929688 -5.945312 5.632812 -6.0625 5.34375 -6.15625 C 5.050781 -6.25 4.738281 -6.296875 4.40625 -6.296875 Z M 4.40625 -6.296875 "/></g></g></g><g fill="rgb(13.328552%, 63.139343%, 88.62915%)" fill-opacity="1"><g transform="translate(120.619608, 99.225841)"><g><path d="M 0.859375 0 L 0.859375 -7.953125 L 3.015625 -7.953125 L 3.015625 0 Z M 0.859375 0 "/></g></g></g><g fill="rgb(13.328552%, 63.139343%, 88.62915%)" fill-opacity="1"><g transform="translate(124.495501, 99.225841)"><g><path d="M 8.296875 -3.984375 C 8.296875 -2.648438 7.96875 -1.632812 7.3125 -0.9375 C 6.65625 -0.238281 5.695312 0.109375 4.4375 0.109375 C 3.1875 0.109375 2.226562 -0.238281 1.5625 -0.9375 C 0.894531 -1.632812 0.5625 -2.65625 0.5625 -4 C 0.5625 -5.320312 0.890625 -6.332031 1.546875 -7.03125 C 2.210938 -7.726562 3.175781 -8.078125 4.4375 -8.078125 C 5.707031 -8.078125 6.664062 -7.726562 7.3125 -7.03125 C 7.96875 -6.34375 8.296875 -5.328125 8.296875 -3.984375 Z M 2.828125 -3.984375 C 2.828125 -2.453125 3.363281 -1.6875 4.4375 -1.6875 C 4.976562 -1.6875 5.378906 -1.867188 5.640625 -2.234375 C 5.898438 -2.609375 6.03125 -3.191406 6.03125 -3.984375 C 6.03125 -4.773438 5.894531 -5.359375 5.625 -5.734375 C 5.363281 -6.117188 4.96875 -6.3125 4.4375 -6.3125 C 3.363281 -6.3125 2.828125 -5.535156 2.828125 -3.984375 Z M 2.828125 -3.984375 "/></g></g></g><g fill="rgb(13.328552%, 63.139343%, 88.62915%)" fill-opacity="1"><g transform="translate(133.367111, 99.225841)"><g/></g></g><g fill="rgb(13.328552%, 63.139343%, 88.62915%)" fill-opacity="1"><g transform="translate(136.259081, 99.225841)"><g><path d="M 5.734375 0 L 5.34375 -1.484375 L 2.765625 -1.484375 L 2.359375 0 L 0 0 L 2.59375 -7.984375 L 5.46875 -7.984375 L 8.09375 0 Z M 4.90625 -3.25 L 4.5625 -4.5625 C 4.476562 -4.851562 4.378906 -5.226562 4.265625 -5.6875 C 4.148438 -6.144531 4.078125 -6.472656 4.046875 -6.671875 C 4.015625 -6.484375 3.945312 -6.175781 3.84375 -5.75 C 3.75 -5.332031 3.535156 -4.5 3.203125 -3.25 Z M 4.90625 -3.25 "/></g></g></g><g fill="rgb(13.328552%, 63.139343%, 88.62915%)" fill-opacity="1"><g transform="translate(144.342466, 99.225841)"><g><path d="M 0.859375 0 L 0.859375 -7.953125 L 3.015625 -7.953125 L 3.015625 -1.734375 L 6.078125 -1.734375 L 6.078125 0 Z M 0.859375 0 "/></g></g></g><g fill="rgb(13.328552%, 63.139343%, 88.62915%)" fill-opacity="1"><g transform="translate(150.822219, 99.225841)"><g><path d="M 5.578125 0 L 0.859375 0 L 0.859375 -7.953125 L 5.578125 -7.953125 L 5.578125 -6.234375 L 3.015625 -6.234375 L 3.015625 -4.984375 L 5.390625 -4.984375 L 5.390625 -3.25 L 3.015625 -3.25 L 3.015625 -1.75 L 5.578125 -1.75 Z M 5.578125 0 "/></g></g></g><g fill="rgb(13.328552%, 63.139343%, 88.62915%)" fill-opacity="1"><g transform="translate(156.932323, 99.225841)"><g><path d="M 8.03125 0 L 5.53125 0 L 3.984375 -2.484375 L 2.453125 0 L 0.015625 0 L 2.65625 -4.0625 L 0.171875 -7.953125 L 2.5625 -7.953125 L 4 -5.5 L 5.375 -7.953125 L 7.828125 -7.953125 L 5.3125 -3.90625 Z M 8.03125 0 "/></g></g></g></svg>